HIERARCHY
ROOT Hips
{
    OFFSET 0.000000 0.000000 0.000000
    CHANNELS 6 Xposition Yposition Zposition Zrotation Xrotation Yrotation
    JOINT Spine
    {
        OFFSET -0.000000 7.315584 0.000000
        CHANNELS 3 Zrotation Xrotation Yrotation
        JOINT Spine1
        {
            OFFSET -0.000000 21.742830 0.000000
            CHANNELS 3 Zrotation Xrotation Yrotation
            JOINT Neck
            {
                OFFSET -0.000000 21.653538 1.968503
                CHANNELS 3 Zrotation Xrotation Yrotation
                JOINT Head
                {
                    OFFSET -0.000000 12.490022 -1.784289
                    CHANNELS 3 Zrotation Xrotation Yrotation
                    End Site
                    {
                        OFFSET -0.000000 22.303610 0.000000
                    }
                }
            }
            JOINT LeftShoulder
            {
                OFFSET 3.565460 21.440739 -0.045508
                CHANNELS 3 Zrotation Xrotation Yrotation
                JOINT LeftArm
                {
                    OFFSET 5.865323 0.000000 0.000000
                    CHANNELS 3 Zrotation Xrotation Yrotation
                    JOINT LeftForeArm
                    {
                        OFFSET 30.083149 0.000000 0.000000
                        CHANNELS 3 Zrotation Xrotation Yrotation
                        JOINT LeftHand
                        {
                            OFFSET 21.313328 0.000000 0.000000
                            CHANNELS 3 Zrotation Xrotation Yrotation
                            End Site
                            {
                                OFFSET 13.382167 0.000000 0.000000
                            }
                        }
                    }
                }
            }
            JOINT RightShoulder
            {
                OFFSET -3.556053 21.440739 -0.045508
                CHANNELS 3 Zrotation Xrotation Yrotation
                JOINT RightArm
                {
                    OFFSET -5.865323 0.000000 0.000000
                    CHANNELS 3 Zrotation Xrotation Yrotation
                    JOINT RightForeArm
                    {
                        OFFSET -30.083149 0.000000 0.000000
                        CHANNELS 3 Zrotation Xrotation Yrotation
                        JOINT RightHand
                        {
                            OFFSET -21.313328 0.000000 0.000000
                            CHANNELS 3 Zrotation Xrotation Yrotation
                            End Site
                            {
                                OFFSET -13.382167 0.000000 0.000000
                            }
                        }
                    }
                }
            }
        }
    }
    JOINT LeftUpLeg
    {
        OFFSET 8.921444 0.000000 0.000000
        CHANNELS 3 Zrotation Xrotation Yrotation
        JOINT LeftLeg
        {
            OFFSET -0.000000 -39.632927 0.000000
            CHANNELS 3 Zrotation Xrotation Yrotation
            JOINT LeftFoot
            {
                OFFSET -0.000000 -38.058365 0.000000
                CHANNELS 3 Zrotation Xrotation Yrotation
                JOINT LeftToeBase
                {
                    OFFSET -0.000000 -5.798938 13.382167
                    CHANNELS 3 Zrotation Xrotation Yrotation
                    End Site
                    {
                        OFFSET -0.000000 0.000000 3.568577
                    }
                }
            }
        }
    }
    JOINT RightUpLeg
    {
        OFFSET -8.921444 0.000000 0.000000
        CHANNELS 3 Zrotation Xrotation Yrotation
        JOINT RightLeg
        {
            OFFSET -0.000000 -39.632927 0.000000
            CHANNELS 3 Zrotation Xrotation Yrotation
            JOINT RightFoot
            {
                OFFSET -0.000000 -38.058365 0.000000
                CHANNELS 3 Zrotation Xrotation Yrotation
                JOINT RightToeBase
                {
                    OFFSET -0.000000 -5.798938 13.382167
                    CHANNELS 3 Zrotation Xrotation Yrotation
                    End Site
                    {
                        OFFSET -0.000000 0.000000 3.568577
                    }
                }
            }
        }
    }
}
MOTION
Frames:    13
Frame Time:    0.004000
-30.425406    78.227158    -192.555267    -0.170695    -1.378953    9.031106    -0.767359    -7.330039    0.608755    0.276991    -1.771513    0.662266    -2.868636    24.920769    0.257585    0.683346    4.070634    0.102652    14.252462    -2.986056    -6.035926    -18.017586    -0.175873    3.140324    1.868102    -1.068837    2.353951    -4.872900    -1.107433    0.004140    -14.087969    -0.261471    -4.917870    13.980247    -4.850206    -0.432325    -2.484807    1.065361    -1.317528    3.813998    1.040396    0.107094    -2.197836    3.492558    1.314623    -1.756095    0.513311    1.449087    2.878964    -4.131920    3.710379    0.000000    0.000000    0.000000    -0.596006    4.698699    1.511806    2.880222    0.738859    -0.570782    -1.458100    -5.570596    -11.353267    0.000000    0.000000    0.000000    
-30.426260    78.225494    -192.554337    -0.173375    -1.380759    9.042596    -0.770558    -7.330596    0.604892    0.294098    -1.773200    0.658783    -2.876607    24.906219    0.262937    0.663499    4.076534    0.103669    14.221772    -3.006351    -6.028683    -17.997021    -0.167031    3.120832    1.848869    -1.060710    2.360047    -4.909093    -1.099306    0.011470    -14.101017    -0.254408    -4.924108    13.971270    -4.863684    -0.426584    -2.502417    1.078802    -1.307453    3.868663    1.053809    0.104312    -2.194764    3.497041    1.302760    -1.751669    0.506475    1.445998    2.903558    -4.136559    3.701909    0.000000    0.000000    0.000000    -0.589912    4.705095    1.513023    2.877860    0.731122    -0.570405    -1.501247    -5.565326    -11.349686    0.000000    0.000000    0.000000    
-30.426735    78.225975    -192.552765    -0.171141    -1.383678    9.046899    -0.770899    -7.333955    0.606488    0.291752    -1.767518    0.660425    -2.869326    24.904308    0.262305    0.650846    4.070802    0.104063    14.221139    -2.996700    -6.035086    -17.995687    -0.169354    3.104143    1.836933    -1.059862    2.375280    -4.896670    -1.098744    0.018442    -14.100750    -0.263752    -4.934328    13.958830    -4.831062    -0.416133    -2.494004    1.060219    -1.321775    3.887356    1.035229    0.111039    -2.193707    3.497942    1.303055    -1.755522    0.518838    1.427173    2.876176    -4.140389    3.732774    0.000000    0.000000    0.000000    -0.587565    4.710774    1.505910    2.869347    0.730128    -0.574598    -1.428266    -5.582022    -11.359470    0.000000    0.000000    0.000000    
-30.424877    78.225433    -192.552155    -0.171184    -1.380632    9.045472    -0.763394    -7.342216    0.602499    0.287510    -1.763330    0.655935    -2.884309    24.894552    0.275084    0.651937    4.072828    0.115086    14.213377    -3.004002    -6.022279    -17.993587    -0.146773    3.098036    1.829666    -1.063969    2.381023    -4.900960    -1.102838    0.019048    -14.121175    -0.263534    -4.922201    13.977418    -4.834316    -0.412347    -2.505174    1.062848    -1.321373    3.903933    1.037818    0.113013    -2.200694    3.499483    1.316891    -1.746011    0.505818    1.431738    2.905306    -4.129709    3.709517    0.000000    0.000000    0.000000    -0.592676    4.708045    1.512441    2.875068    0.730431    -0.558214    -1.456266    -5.584478    -11.374254    0.000000    0.000000    0.000000    
-30.426867    78.225723    -192.550964    -0.173886    -1.385434    9.043036    -0.763108    -7.338504    0.604642    0.291708    -1.768965    0.658136    -2.878700    24.900122    0.276992    0.645091    4.061621    0.118287    14.217108    -2.996836    -6.034409    -17.994511    -0.163413    3.098266    1.817799    -1.059917    2.385426    -4.905193    -1.098989    0.027897    -14.116927    -0.255591    -4.922609    13.965524    -4.838131    -0.407925    -2.505124    1.059834    -1.315669    3.916114    1.034483    0.099114    -2.192198    3.505802    1.307799    -1.755698    0.505993    1.443462    2.883943    -4.149274    3.714953    0.000000    0.000000    0.000000    -0.585778    4.710572    1.506911    2.874988    0.732512    -0.577040    -1.452042    -5.570621    -11.351356    0.000000    0.000000    0.000000    
-30.425114    78.224602    -192.549728    -0.165813    -1.396469    9.051430    -0.773857    -7.327594    0.600873    0.304938    -1.770444    0.655219    -2.890231    24.884686    0.280634    0.643923    4.083226    0.119859    14.204678    -3.003582    -6.052369    -18.002556    -0.134638    3.111750    1.822703    -1.060650    2.386173    -4.946757    -1.099556    0.021220    -14.138717    -0.262981    -4.918756    13.975289    -4.824463    -0.413764    -2.497830    1.038286    -1.287475    3.813405    1.011656    0.043310    -2.201971    3.517920    1.300943    -1.742880    0.504439    1.439418    2.870864    -4.140574    3.696724    0.000000    0.000000    0.000000    -0.593643    4.726846    1.511336    2.875407    0.733714    -0.565098    -1.460646    -5.584418    -11.362949    0.000000    0.000000    0.000000    
-30.426067    78.224968    -192.549454    -0.167940    -1.387271    9.048118    -0.767449    -7.340150    0.603226    0.292654    -1.770473    0.656975    -2.879294    24.879892    0.278604    0.635298    4.087036    0.118435    14.218108    -2.994221    -6.035416    -18.004629    -0.144245    3.084018    1.801047    -1.057815    2.388019    -4.919631    -1.097471    0.048194    -14.139583    -0.256324    -4.926439    13.977344    -4.828402    -0.398947    -2.494850    1.045711    -1.293017    3.850871    1.019632    0.062281    -2.199896    3.512135    1.303736    -1.746733    0.494032    1.459883    2.886370    -4.134822    3.680003    0.000000    0.000000    0.000000    -0.591572    4.715169    1.512154    2.872841    0.738039    -0.572455    -1.456383    -5.591032    -11.367670    0.000000    0.000000    0.000000    
-30.425812    78.224480    -192.551147    -0.169205    -1.382075    9.052548    -0.764796    -7.345207    0.599149    0.293321    -1.774951    0.652855    -2.888844    24.878439    0.282342    0.638409    4.086536    0.122413    14.203455    -3.013224    -6.033189    -18.000406    -0.116982    3.083178    1.799539    -1.050159    2.400650    -4.938334    -1.088723    0.020119    -14.141405    -0.252942    -4.914694    13.976105    -4.813934    -0.401790    -2.499753    1.033459    -1.287879    3.840287    1.007852    0.072134    -2.198802    3.502217    1.305580    -1.750317    0.503656    1.428389    2.876699    -4.137844    3.714876    0.000000    0.000000    0.000000    -0.593146    4.711413    1.521442    2.877181    0.729314    -0.582315    -1.454775    -5.585127    -11.362880    0.000000    0.000000    0.000000    
-30.425253    78.225060    -192.549637    -0.164926    -1.382644    9.052639    -0.765246    -7.351974    0.599829    0.286646    -1.763084    0.653509    -2.886638    24.850060    0.286901    0.643516    4.113237    0.127966    14.208115    -2.996480    -6.038473    -18.004482    -0.108090    3.077532    1.794918    -1.067620    2.402951    -4.947809    -1.106765    0.034597    -14.143530    -0.266337    -4.923840    13.980902    -4.814459    -0.400895    -2.507673    1.036943    -1.263427    3.851933    1.011246    0.056330    -2.204385    3.501624    1.297435    -1.745324    0.513361    1.427079    2.880635    -4.135198    3.720913    0.000000    0.000000    0.000000    -0.599111    4.714485    1.529242    2.881336    0.725901    -0.569761    -1.473964    -5.574274    -11.378161    0.000000    0.000000    0.000000    
-30.426264    78.225258    -192.549484    -0.166186    -1.380459    9.053675    -0.769012    -7.356776    0.596761    0.297097    -1.764357    0.650799    -2.894942    24.843035    0.293162    0.639556    4.118815    0.132673    14.208817    -3.009019    -6.036184    -18.017363    -0.111390    3.080167    1.786429    -1.058452    2.395088    -4.920835    -1.097693    0.043404    -14.152230    -0.251757    -4.917061    13.985540    -4.816669    -0.394351    -2.510595    1.030308    -1.261008    3.846834    1.004702    0.057988    -2.199422    3.499213    1.296049    -1.754780    0.510778    1.431301    2.894829    -4.143981    3.724363    0.000000    0.000000    0.000000    -0.598228    4.710207    1.526772    2.882295    0.734482    -0.548759    -1.468835    -5.581469    -11.397007    0.000000    0.000000    0.000000    
-30.425936    78.225204    -192.547089    -0.164610    -1.389907    9.050664    -0.762631    -7.351057    0.598269    0.288265    -1.766236    0.651805    -2.912670    24.851673    0.297913    0.673822    4.106319    0.139802    14.197753    -3.017474    -6.020885    -18.009974    -0.104632    3.064654    1.786467    -1.053117    2.387099    -4.933598    -1.092646    0.053292    -14.138606    -0.250321    -4.918377    13.973224    -4.813904    -0.386320    -2.514057    1.029479    -1.254915    3.859596    1.004099    0.064154    -2.203412    3.515037    1.307315    -1.748865    0.499855    1.447980    2.875039    -4.137655    3.703267    0.000000    0.000000    0.000000    -0.599449    4.725037    1.540435    2.885911    0.720970    -0.572610    -1.478327    -5.572851    -11.393356    0.000000    0.000000    0.000000    
-30.424891    78.226265    -192.548523    -0.159767    -1.382393    9.056505    -0.765723    -7.357121    0.596441    0.286812    -1.773206    0.650084    -2.909970    24.851992    0.294642    0.659809    4.106575    0.135790    14.180583    -3.010540    -6.038344    -17.997038    -0.090735    3.070748    1.779895    -1.069310    2.391750    -4.933492    -1.108328    0.041912    -14.150213    -0.248712    -4.905726    13.982012    -4.797777    -0.398654    -2.511976    1.019965    -1.247163    3.842324    0.995296    0.079721    -2.210892    3.505423    1.307429    -1.744634    0.505589    1.429886    2.877393    -4.130122    3.711049    0.000000    0.000000    0.000000    -0.602391    4.714949    1.526483    2.874553    0.734846    -0.570684    -1.470380    -5.588097    -11.373218    0.000000    0.000000    0.000000    
-30.426285    78.225670    -192.547134    -0.162424    -1.388025    9.057445    -0.763799    -7.356198    0.594370    0.285014    -1.770868    0.647943    -2.913378    24.849384    0.294060    0.674536    4.108204    0.136655    14.197663    -3.015745    -6.035336    -18.017786    -0.081007    3.066773    1.775877    -1.070463    2.396538    -4.947213    -1.108983    0.030681    -14.148605    -0.258972    -4.900423    13.985698    -4.792499    -0.401839    -2.518260    1.028587    -1.234562    3.851273    1.004206    0.081099    -2.203262    3.510813    1.298931    -1.752996    0.503153    1.436214    2.888240    -4.140954    3.712419    0.000000    0.000000    0.000000    -0.597490    4.720683    1.510524    2.878344    0.733636    -0.555347    -1.465037    -5.588399    -11.393426    0.000000    0.000000    0.000000    
